<svg width="39" height="37" viewBox="0 0 39 37" fill="none" xmlns="http://www.w3.org/2000/svg">
<path d="M25.3891 16.2137H12.8124C12.3336 16.2132 11.8745 16.0223 11.536 15.6831C11.1974 15.3439 11.0069 14.884 11.0063 14.4043V1.80396C11.0076 1.32497 11.1985 0.866056 11.5371 0.527874C11.8757 0.189692 12.3343 -0.00014644 12.8124 8.47571e-08H25.3891C25.8666 8.47571e-08 26.3246 0.190059 26.6623 0.528367C27 0.866674 27.1897 1.32552 27.1897 1.80396V3.47672C27.1897 3.6217 27.1322 3.76074 27.0298 3.86326C26.9275 3.96578 26.7887 4.02337 26.644 4.02337C26.4993 4.02337 26.3605 3.96578 26.2582 3.86326C26.1559 3.76074 26.0984 3.6217 26.0984 3.47672V1.80396C26.0984 1.61548 26.0237 1.43472 25.8906 1.30145C25.7576 1.16818 25.5772 1.09331 25.3891 1.09331H12.8124C12.6236 1.09287 12.4424 1.16743 12.3084 1.30064C12.1744 1.43385 12.0986 1.61485 12.0976 1.80396V14.4043C12.0979 14.5942 12.1733 14.7761 12.3073 14.9104C12.4413 15.0446 12.6229 15.1201 12.8124 15.1204H25.3891C25.5778 15.1194 25.7585 15.0435 25.8915 14.9092C26.0244 14.775 26.0988 14.5934 26.0984 14.4043V12.737C26.0984 12.592 26.1559 12.453 26.2582 12.3505C26.3605 12.248 26.4993 12.1904 26.644 12.1904C26.7887 12.1904 26.9275 12.248 27.0298 12.3505C27.1322 12.453 27.1897 12.592 27.1897 12.737V14.4043C27.1898 14.8833 27.0003 15.3428 26.6628 15.682C26.3252 16.0212 25.8672 16.2124 25.3891 16.2137Z" fill="#1D37B5"/>
<path d="M26.6439 9.45704C26.4992 9.45704 26.3605 9.39944 26.2581 9.29691C26.1558 9.19438 26.0983 9.05532 26.0983 8.91033V7.30299C26.0983 7.15799 26.1558 7.01893 26.2581 6.9164C26.3605 6.81387 26.4992 6.75628 26.6439 6.75628C26.7887 6.75628 26.9274 6.81387 27.0298 6.9164C27.1321 7.01893 27.1896 7.15799 27.1896 7.30299V8.91033C27.1896 9.05532 27.1321 9.19438 27.0298 9.29691C26.9274 9.39944 26.7887 9.45704 26.6439 9.45704Z" fill="#1D37B5"/>
<path d="M19.0979 28.1841C18.9532 28.1841 18.8144 28.1265 18.7121 28.0239C18.6097 27.9214 18.5522 27.7824 18.5522 27.6374V15.6668C18.5522 15.5218 18.6097 15.3828 18.7121 15.2802C18.8144 15.1777 18.9532 15.1201 19.0979 15.1201C19.2426 15.1201 19.3814 15.1777 19.4837 15.2802C19.586 15.3828 19.6435 15.5218 19.6435 15.6668V27.6385C19.6432 27.7833 19.5856 27.9221 19.4833 28.0243C19.381 28.1266 19.2424 28.1841 19.0979 28.1841Z" fill="#1D37B5"/>
<path d="M33.5621 28.1843C33.4174 28.1843 33.2786 28.1267 33.1763 28.0242C33.074 27.9217 33.0165 27.7826 33.0165 27.6376V22.5976C33.0155 22.4088 32.94 22.2282 32.8065 22.095C32.673 21.9619 32.4923 21.8871 32.3039 21.8869H5.89393C5.70555 21.8871 5.52488 21.9619 5.39137 22.095C5.25785 22.2282 5.18235 22.4088 5.18134 22.5976V27.6376C5.18134 27.7826 5.12386 27.9217 5.02153 28.0242C4.91921 28.1267 4.78042 28.1843 4.63571 28.1843C4.49101 28.1843 4.35222 28.1267 4.2499 28.0242C4.14757 27.9217 4.09009 27.7826 4.09009 27.6376V22.5976C4.09153 22.119 4.28215 21.6605 4.62021 21.3224C4.95828 20.9844 5.41626 20.7942 5.89393 20.7936H32.3023C32.7804 20.7942 33.2388 20.9847 33.577 21.3234C33.9151 21.6621 34.1054 22.1213 34.1061 22.6003V27.6404C34.1054 27.7846 34.0478 27.9227 33.9459 28.0246C33.844 28.1264 33.7061 28.1838 33.5621 28.1843Z" fill="#1D37B5"/>
<path d="M33.5621 36.3748C32.6457 36.3749 31.7498 36.1027 30.9877 35.5927C30.2257 35.0827 29.6317 34.3577 29.281 33.5094C28.9302 32.6612 28.8383 31.7278 29.0171 30.8273C29.1958 29.9268 29.637 29.0995 30.285 28.4503C30.933 27.801 31.7586 27.3588 32.6574 27.1797C33.5562 27.0005 34.4879 27.0924 35.3346 27.4437C36.1813 27.7951 36.905 28.3901 37.4141 29.1535C37.9233 29.9169 38.195 30.8144 38.195 31.7326C38.1939 32.9633 37.7054 34.1433 36.8368 35.0136C35.9683 35.8839 34.7905 36.3735 33.5621 36.3748ZM33.5621 28.1843C32.8615 28.1842 32.1766 28.3922 31.594 28.7821C31.0114 29.172 30.5573 29.7263 30.2891 30.3748C30.0209 31.0233 29.9507 31.7369 30.0874 32.4254C30.2241 33.1138 30.5614 33.7462 31.0568 34.2426C31.5523 34.7389 32.1835 35.0769 32.8706 35.2138C33.5578 35.3508 34.2701 35.2804 34.9174 35.0118C35.5646 34.7431 36.1178 34.2881 36.507 33.7044C36.8962 33.1207 37.1039 32.4345 37.1038 31.7326C37.1025 30.7919 36.7289 29.8901 36.065 29.225C35.4011 28.5598 34.501 28.1856 33.5621 28.1843Z" fill="#1D37B5"/>
<path d="M19.0979 36.3748C18.1815 36.3748 17.2856 36.1025 16.5237 35.5924C15.7617 35.0823 15.1678 34.3573 14.8171 33.5091C14.4664 32.6608 14.3747 31.7274 14.5534 30.8269C14.7322 29.9265 15.1735 29.0993 15.8215 28.4501C16.4695 27.8009 17.2951 27.3587 18.1939 27.1796C19.0928 27.0005 20.0244 27.0924 20.871 27.4438C21.7177 27.7951 22.4414 28.3901 22.9505 29.1535C23.4596 29.9169 23.7314 30.8145 23.7314 31.7326C23.7302 32.9634 23.2417 34.1435 22.373 35.0138C21.5043 35.8841 20.3264 36.3736 19.0979 36.3748ZM19.0979 28.1843C18.3973 28.1843 17.7124 28.3924 17.1299 28.7824C16.5474 29.1724 16.0933 29.7267 15.8253 30.3752C15.5572 31.0237 15.4871 31.7373 15.6238 32.4257C15.7605 33.1141 16.0979 33.7465 16.5934 34.2428C17.0888 34.7391 17.72 35.077 18.4072 35.2139C19.0943 35.3507 19.8066 35.2804 20.4538 35.0117C21.1011 34.743 21.6542 34.2881 22.0434 33.7044C22.4326 33.1207 22.6402 32.4345 22.6401 31.7326C22.6388 30.7918 22.2652 29.89 21.6012 29.2248C20.9371 28.5596 20.0369 28.1854 19.0979 28.1843Z" fill="#1D37B5"/>
<path d="M4.63401 36.3748C3.71757 36.3749 2.82169 36.1027 2.05965 35.5927C1.29761 35.0827 0.703639 34.3577 0.35286 33.5094C0.00208049 32.6612 -0.0897552 31.7278 0.0889663 30.8273C0.267688 29.9268 0.708939 29.0995 1.35692 28.4503C2.0049 27.801 2.8305 27.3588 3.72932 27.1797C4.62814 27.0005 5.5598 27.0924 6.40648 27.4437C7.25317 27.7951 7.97685 28.3901 8.48601 29.1535C8.99516 29.9169 9.26692 30.8144 9.26692 31.7326C9.26577 32.9633 8.7773 34.1433 7.90873 35.0136C7.04016 35.8839 5.86243 36.3735 4.63401 36.3748ZM4.63401 28.1843C3.93338 28.1842 3.24845 28.3922 2.66586 28.7821C2.08326 29.172 1.62916 29.7263 1.36099 30.3748C1.09282 31.0233 1.02263 31.7369 1.15929 32.4254C1.29595 33.1138 1.63332 33.7462 2.12874 34.2426C2.62416 34.7389 3.25537 35.0769 3.94255 35.2138C4.62972 35.3508 5.34198 35.2804 5.98926 35.0118C6.63653 34.7431 7.18975 34.2881 7.57893 33.7044C7.96811 33.1207 8.17578 32.4345 8.17567 31.7326C8.17437 30.7919 7.80082 29.8901 7.13691 29.225C6.473 28.5598 5.57292 28.1856 4.63401 28.1843Z" fill="#1D37B5"/>
</svg>
