<svg width="45" height="39" viewBox="0 0 45 39" fill="none" xmlns="http://www.w3.org/2000/svg">
<path d="M26.9709 34.2824H26.1079C25.8521 32.6092 24.36 31.2883 22.5629 31.2883H5.81414C4.01704 31.2883 2.52501 32.6092 2.26925 34.2824H1.40625C1.11507 34.2824 0.878906 34.557 0.878906 34.8489V38.3414C0.879074 38.4104 0.89289 38.4786 0.919554 38.5422C0.946217 38.6057 0.985199 38.6634 1.03424 38.7117C1.08329 38.7601 1.14142 38.7982 1.20527 38.824C1.26913 38.8497 1.33744 38.8624 1.40625 38.8615H26.9709C27.1111 38.8638 27.2465 38.8104 27.3475 38.7129C27.4485 38.6154 27.5068 38.4819 27.5098 38.3414V34.8489C27.5085 34.7035 27.4521 34.5641 27.3521 34.4589C27.252 34.3537 27.1157 34.2906 26.9709 34.2824ZM5.81414 32.3451H22.5629C23.7768 32.3451 24.7934 33.1376 25.0366 34.2824H3.34055C3.58374 33.1376 4.60037 32.3451 5.81414 32.3451ZM26.4551 37.8048H1.93359V35.3391H26.4551V37.8048Z" fill="#1D37B5"/>
<path d="M42.9975 29.7923L31.5102 18.954C31.4103 18.8598 31.2778 18.8083 31.1407 18.8103C31.0035 18.8124 30.8726 18.8679 30.7757 18.965L30.48 19.2613L29.5923 18.3719C29.8649 17.9718 29.9795 17.4846 29.9137 17.0047C29.8479 16.5248 29.6065 16.0865 29.2363 15.7749C28.8661 15.4633 28.3936 15.3006 27.9104 15.3183C27.4273 15.3361 26.9679 15.5331 26.6216 15.8711L25.252 14.4987L28.625 11.1194L29.5349 12.0311C29.6338 12.1302 29.7679 12.1858 29.9077 12.1858C30.0476 12.1858 30.1817 12.1302 30.2806 12.0311L31.9307 10.3779C32.256 10.051 32.4387 9.60833 32.4388 9.14677C32.4389 8.68521 32.2564 8.24242 31.9312 7.91543L24.5391 0.509363C24.2129 0.183187 23.7708 0 23.3099 0C22.849 0 22.4069 0.183187 22.0806 0.509363L20.8317 1.76063L20.4305 2.1626C20.3316 2.26168 20.276 2.39606 20.276 2.53618C20.276 2.67629 20.3316 2.81067 20.4305 2.90975L21.3407 3.82165L12.0235 13.1565L11.1129 12.2445C11.014 12.1454 10.8798 12.0898 10.74 12.0898C10.6001 12.0898 10.466 12.1454 10.3671 12.2445L8.71713 13.8976C8.39154 14.2245 8.20868 14.6674 8.20868 15.1292C8.20868 15.591 8.39154 16.0339 8.71713 16.3608L16.1087 23.7663C16.4348 24.0929 16.877 24.2764 17.3381 24.2764C17.7991 24.2764 18.2413 24.0929 18.5674 23.7663L20.2174 22.113C20.3162 22.0139 20.3718 21.8796 20.3718 21.7394C20.3718 21.5993 20.3162 21.4649 20.2174 21.3659L19.3072 20.4541L22.6801 17.0748L24.0497 18.447C23.7121 18.794 23.5153 19.2543 23.4975 19.7386C23.4797 20.2228 23.6422 20.6964 23.9533 21.0674C24.2645 21.4383 24.7022 21.6802 25.1814 21.7459C25.6606 21.8117 26.1471 21.6967 26.5464 21.4233L27.4341 22.3126L27.1383 22.6089C27.0413 22.7061 26.986 22.8372 26.9839 22.9746C26.9819 23.112 27.0333 23.2447 27.1273 23.3447L37.9453 34.8536C38.2722 35.2038 38.6666 35.484 39.1045 35.6775C39.5424 35.8709 40.015 35.9735 40.4935 35.979C40.512 35.979 40.5304 35.979 40.5489 35.979C41.0182 35.9804 41.4831 35.8884 41.9166 35.7084C42.3501 35.5284 42.7436 35.2639 43.0743 34.9303C43.4125 34.5913 43.6794 34.1879 43.8591 33.7437C44.0388 33.2996 44.1277 32.8238 44.1205 32.3447C44.1133 31.8655 44.0102 31.3926 43.8173 30.9541C43.6243 30.5155 43.3455 30.1203 42.9973 29.7917L42.9975 29.7923ZM21.5772 2.50822L22.826 1.25695C22.9544 1.12874 23.1282 1.05674 23.3094 1.05674C23.4907 1.05674 23.6645 1.12874 23.7928 1.25695L31.1844 8.66284C31.3124 8.79141 31.3843 8.96557 31.3843 9.14714C31.3843 9.32872 31.3124 9.50288 31.1844 9.63145L29.9071 10.9111L21.5487 2.53701L21.5772 2.50822ZM17.8216 23.0198C17.6934 23.1482 17.5195 23.2204 17.3382 23.2204C17.1569 23.2204 16.9831 23.1482 16.8548 23.0198L9.46324 15.6144C9.33531 15.4858 9.26347 15.3116 9.26347 15.1301C9.26347 14.9485 9.33531 14.7743 9.46324 14.6458L10.7403 13.3654L19.0987 21.7395L17.8216 23.0198ZM18.5615 19.7076L12.7688 13.9041L22.0864 4.56871L27.879 10.3723L18.5615 19.7076ZM23.426 16.3284L24.5061 15.2463L25.875 16.6172L24.795 17.6993L23.426 16.3284ZM26.0796 20.4459C25.9964 20.5292 25.8976 20.5953 25.7889 20.6405C25.6802 20.6856 25.5637 20.7088 25.446 20.7088C25.3283 20.7088 25.2118 20.6856 25.1031 20.6405C24.9944 20.5953 24.8957 20.5292 24.8125 20.4459C24.7292 20.3625 24.6632 20.2635 24.6182 20.1546C24.5732 20.0457 24.55 19.929 24.55 19.8111C24.55 19.6932 24.5732 19.5765 24.6182 19.4676C24.6632 19.3587 24.7292 19.2597 24.8125 19.1764L27.3487 16.6354C27.4317 16.551 27.5305 16.4839 27.6395 16.4379C27.7485 16.392 27.8654 16.3681 27.9837 16.3676C28.1019 16.3672 28.2191 16.3902 28.3284 16.4353C28.4377 16.4804 28.537 16.5468 28.6207 16.6305C28.7043 16.7143 28.7705 16.8138 28.8155 16.9233C28.8606 17.0328 28.8836 17.1502 28.8831 17.2687C28.8827 17.3871 28.8588 17.5043 28.813 17.6135C28.7671 17.7227 28.7001 17.8217 28.6159 17.9049L26.0796 20.4459ZM27.3165 20.7004L28.8709 19.1431L29.7344 20.0081L28.1799 21.5655L27.3165 20.7004ZM42.3286 34.1837C42.0902 34.4226 41.8063 34.6111 41.4938 34.738C41.1814 34.865 40.8466 34.9278 40.5095 34.9227C40.1723 34.9176 39.8396 34.8448 39.5311 34.7085C39.2226 34.5723 38.9445 34.3753 38.7133 34.1294L28.2461 22.9939L31.1596 20.0748L42.2744 30.5616C42.5198 30.7932 42.7164 31.0718 42.8524 31.3809C42.9884 31.69 43.0611 32.0234 43.0662 32.3611C43.0712 32.6989 43.0086 33.0343 42.8819 33.3474C42.7552 33.6604 42.567 33.9448 42.3286 34.1837Z" fill="#1D37B5"/>
<path d="M31.8951 22.191C31.7958 22.0941 31.6623 22.0403 31.5237 22.0413C31.3851 22.0422 31.2524 22.0978 31.1544 22.1961C31.0564 22.2943 31.0009 22.4272 31 22.5661C30.9991 22.705 31.0528 22.8387 31.1494 22.9383L31.4164 23.2058C31.5157 23.3026 31.6491 23.3564 31.7877 23.3555C31.9264 23.3545 32.059 23.2989 32.157 23.2007C32.255 23.1024 32.3105 22.9695 32.3115 22.8306C32.3124 22.6917 32.2587 22.558 32.162 22.4585L31.8951 22.191Z" fill="#1D37B5"/>
<path d="M33.4673 23.7659C33.3684 23.6668 33.2343 23.6111 33.0944 23.6111C32.9545 23.6111 32.8204 23.6667 32.7215 23.7658C32.6226 23.8649 32.567 23.9993 32.567 24.1394C32.5669 24.2796 32.6225 24.414 32.7214 24.5131L37.4446 29.2454C37.5435 29.3445 37.6777 29.4001 37.8175 29.4001C37.9574 29.4001 38.0915 29.3445 38.1904 29.2454C38.2893 29.1463 38.3449 29.0119 38.3449 28.8718C38.3449 28.7316 38.2893 28.5972 38.1904 28.4981L33.4673 23.7659Z" fill="#1D37B5"/>
</svg>
