<svg width="46" height="33" viewBox="0 0 46 33" fill="none" xmlns="http://www.w3.org/2000/svg">
<path d="M34.9664 23.4724C34.4701 23.4721 33.9836 23.3334 33.5615 23.0719L26.3094 18.7293C26.2351 18.6867 26.17 18.6296 26.118 18.5615C26.0659 18.4934 26.0279 18.4155 26.0062 18.3325C25.9845 18.2495 25.9795 18.163 25.9916 18.0781C26.0036 17.9932 26.0324 17.9115 26.0763 17.8378C26.1202 17.7641 26.1783 17.6999 26.2472 17.649C26.3162 17.5981 26.3945 17.5614 26.4778 17.5412C26.561 17.5209 26.6474 17.5175 26.732 17.5311C26.8165 17.5447 26.8975 17.575 26.9703 17.6203L34.2294 21.9668C34.5417 22.1653 34.9196 22.2325 35.281 22.1536C35.6424 22.0748 35.9582 21.8564 36.1599 21.5458C36.3616 21.2352 36.4328 20.8574 36.3582 20.4944C36.2836 20.1315 36.0691 19.8127 35.7613 19.6072L29.0231 15.0359C28.9077 14.9571 28.7775 14.868 28.6363 14.7775C28.5621 14.7335 28.4975 14.675 28.4463 14.6055C28.3951 14.536 28.3583 14.4569 28.3381 14.373C28.318 14.289 28.3148 14.2018 28.3289 14.1166C28.3429 14.0313 28.3739 13.9498 28.4199 13.8768C28.466 13.8038 28.5262 13.7407 28.597 13.6914C28.6678 13.6422 28.7478 13.6076 28.8322 13.5898C28.9165 13.572 29.0036 13.5713 29.0882 13.5878C29.1729 13.6044 29.2533 13.6377 29.3249 13.6859C29.4803 13.7841 29.624 13.8797 29.7485 13.9663L36.4847 18.5369C36.9614 18.8619 37.3214 19.3314 37.5121 19.8766C37.7027 20.4217 37.7139 21.0137 37.5441 21.5657C37.3742 22.1176 37.0322 22.6005 36.5683 22.9435C36.1044 23.2864 35.5429 23.4713 34.9664 23.4711V23.4724Z" fill="#1D37B5"/>
<path d="M29.5131 30.1362C29.071 30.1368 28.6354 30.0299 28.2436 29.8249L23.6086 27.3967C23.4615 27.3149 23.3522 27.1788 23.3039 27.0174C23.2556 26.856 23.2722 26.6821 23.3501 26.5328C23.4279 26.3834 23.561 26.2705 23.7208 26.218C23.8807 26.1656 24.0546 26.1778 24.2056 26.2521L28.84 28.6796C29.1541 28.8425 29.5161 28.8873 29.8603 28.8057C30.2045 28.7242 30.5082 28.5218 30.7162 28.2352C30.8333 28.0723 30.9161 27.8872 30.9593 27.6912C31.0026 27.4952 31.0054 27.2924 30.9677 27.0952C30.93 26.8981 30.8524 26.7107 30.7399 26.5446C30.6274 26.3786 30.4822 26.2372 30.3132 26.1293L25.5421 23.0849C25.4001 22.992 25.3003 22.8466 25.2645 22.6804C25.2287 22.5143 25.2598 22.3407 25.3509 22.1973C25.442 22.0538 25.5859 21.9522 25.7513 21.9144C25.9168 21.8766 26.0904 21.9056 26.2346 21.9952L31.0057 25.0396C31.3228 25.242 31.5953 25.5071 31.8065 25.8188C32.0177 26.1304 32.1632 26.4819 32.2341 26.8518C32.3049 27.2218 32.2997 27.6023 32.2186 27.9701C32.1375 28.3379 31.9824 28.6853 31.7626 28.9909C31.5048 29.3465 31.1665 29.6357 30.7754 29.8348C30.3844 30.0339 29.9518 30.1372 29.5131 30.1362Z" fill="#1D37B5"/>
<path d="M25.2766 32.25C24.8419 32.2502 24.4131 32.1487 24.0245 31.9535L15.6744 27.7683C14.8567 27.3582 14.0874 26.8575 13.3811 26.2755L10.7841 24.1316C10.5395 23.9292 10.3031 23.7182 10.0748 23.4985L5.53005 19.1009C5.4688 19.042 5.41976 18.9716 5.38574 18.8937C5.35172 18.8158 5.33338 18.7319 5.33178 18.6469C5.33018 18.5619 5.34535 18.4774 5.37642 18.3983C5.40749 18.3191 5.45385 18.2469 5.51283 18.1858C5.57182 18.1246 5.64228 18.0758 5.72016 18.042C5.79804 18.0082 5.88181 17.9901 5.96667 17.9888C6.05153 17.9876 6.13581 18.0031 6.21468 18.0345C6.29354 18.0659 6.36544 18.1126 6.42624 18.172L10.9717 22.569C11.1746 22.7662 11.3852 22.9546 11.6035 23.1342L14.2005 25.2775C14.832 25.7979 15.5197 26.2458 16.2508 26.6127L24.6009 30.7972C24.947 30.9687 25.3448 31.0033 25.7152 30.8942C26.0856 30.785 26.4013 30.54 26.5996 30.2081L27.508 28.6727C27.5512 28.5997 27.6082 28.5359 27.676 28.485C27.7437 28.4341 27.8208 28.3971 27.9028 28.376C27.9848 28.355 28.0702 28.3503 28.154 28.3623C28.2378 28.3743 28.3185 28.4027 28.3913 28.4459C28.4642 28.4892 28.5278 28.5463 28.5786 28.6142C28.6294 28.6821 28.6664 28.7593 28.6874 28.8415C28.7084 28.9236 28.7131 29.0092 28.7011 29.0931C28.6891 29.1771 28.6608 29.2579 28.6176 29.3309L27.7085 30.867C27.4576 31.2889 27.1014 31.6382 26.6751 31.8807C26.2487 32.1231 25.7668 32.2504 25.2766 32.25Z" fill="#1D37B5"/>
<path d="M12.9935 9.14319C11.71 9.12699 10.4462 8.8243 9.29401 8.25712C9.21832 8.21892 9.15087 8.16616 9.09552 8.10184C9.04017 8.03752 8.99799 7.9629 8.97141 7.88224C8.94483 7.80158 8.93436 7.71646 8.94059 7.63174C8.94683 7.54703 8.96964 7.46437 9.00774 7.3885C9.08469 7.23526 9.21922 7.11893 9.38172 7.06512C9.46219 7.03847 9.5471 7.02797 9.63161 7.03422C9.71613 7.04047 9.79858 7.06335 9.87428 7.10154C11.1772 7.74835 12.6481 7.97415 14.0844 7.74784C14.1102 7.7428 14.1363 7.73935 14.1625 7.73749L14.3701 7.72198C15.1728 7.5999 15.987 7.57192 16.7962 7.63861C16.9672 7.64907 17.1271 7.72719 17.2406 7.85578C17.3541 7.98438 17.4121 8.15292 17.4016 8.32433C17.3912 8.49574 17.3133 8.65597 17.185 8.76979C17.0567 8.8836 16.8886 8.94166 16.7176 8.9312C15.9838 8.87083 15.2455 8.89643 14.5177 9.00747L14.2991 9.02556C13.8687 9.1064 13.4315 9.14578 12.9935 9.14319Z" fill="#1D37B5"/>
<path d="M29.3829 15.1517C29.2618 15.1516 29.1431 15.1174 29.0405 15.0529L23.5911 11.6195C23.2985 11.435 22.9616 11.333 22.6159 11.3244C22.2703 11.3157 21.9287 11.4007 21.6273 11.5704L18.5551 13.2997L17.7491 13.9302C17.7139 13.9579 17.6759 13.982 17.6357 14.0019C16.4426 14.6536 15.0705 14.8996 13.7259 14.7027C13.4029 14.638 13.1024 14.4895 12.8545 14.272C12.6067 14.0545 12.4202 13.7756 12.3136 13.4632C12.207 13.1509 12.1841 12.816 12.2472 12.492C12.3103 12.168 12.4571 11.8662 12.6731 11.6169L14.5892 9.3799C14.798 9.13393 15.0224 8.90175 15.2611 8.68483C16.6568 7.40479 18.2286 6.33189 19.9284 5.49888C21.1271 4.93026 22.4715 4.74552 23.7788 4.96983L27.6176 5.59126C31.7156 6.05894 32.9689 5.02215 33.0979 4.90265C33.1597 4.8427 33.2329 4.79576 33.3132 4.7646C33.3934 4.73345 33.4791 4.7187 33.5651 4.72123C33.6511 4.72375 33.7357 4.74351 33.814 4.77933C33.8923 4.81515 33.9626 4.8663 34.0209 4.92978C34.0791 4.99326 34.1241 5.06777 34.1531 5.14893C34.1821 5.23009 34.1947 5.31626 34.1899 5.40235C34.1852 5.48844 34.1634 5.57271 34.1256 5.65019C34.0879 5.72768 34.035 5.79681 33.9702 5.85352C33.4577 6.32573 31.7968 7.36833 27.439 6.87093L23.5969 6.24886C22.5435 6.06296 21.4584 6.20734 20.4899 6.66228C18.8996 7.44223 17.4292 8.44685 16.1237 9.6454C15.9259 9.8256 15.7401 10.0185 15.5673 10.2229L13.6499 12.4612C13.581 12.5393 13.5339 12.6343 13.5133 12.7364C13.4927 12.8386 13.4993 12.9444 13.5324 13.0432C13.5655 13.142 13.624 13.2303 13.702 13.2992C13.78 13.3682 13.8748 13.4153 13.9767 13.436C15.0222 13.574 16.0844 13.3759 17.0103 12.8701L17.8001 12.2519C17.8253 12.2316 17.8523 12.2134 17.8807 12.1976L20.9948 10.4445C21.4986 10.1607 22.0695 10.0186 22.6472 10.033C23.225 10.0475 23.7881 10.218 24.2772 10.5265L29.7265 13.9599C29.8448 14.0345 29.9356 14.1457 29.9853 14.2766C30.0351 14.4075 30.041 14.551 30.0022 14.6856C29.9634 14.8201 29.8821 14.9384 29.7703 15.0226C29.6586 15.1068 29.5227 15.1523 29.3829 15.1523V15.1517Z" fill="#1D37B5"/>
<path d="M35.8219 19.512C35.7205 19.5123 35.6204 19.4886 35.5299 19.4429C35.4393 19.3972 35.3608 19.3308 35.3007 19.249C35.2406 19.1671 35.2006 19.0723 35.1839 18.9721C35.1673 18.8719 35.1744 18.7691 35.2049 18.6722C35.858 16.5522 38.9625 15.1291 39.094 15.0697C39.2498 14.9992 39.4273 14.9936 39.5872 15.0542C39.7472 15.1147 39.8766 15.2365 39.947 15.3927C40.0173 15.5488 40.0229 15.7266 39.9625 15.8868C39.902 16.0471 39.7805 16.1768 39.6246 16.2473C38.8735 16.5877 36.8367 17.7569 36.4383 19.0527C36.3983 19.1854 36.3168 19.3016 36.2058 19.3843C36.0948 19.467 35.9602 19.5118 35.8219 19.512Z" fill="#1D37B5"/>
<path d="M40.7909 17.9182C40.6519 17.9181 40.5135 17.8992 40.3795 17.862C40.1856 17.8088 40.0042 17.7174 39.8459 17.5932C39.6876 17.469 39.5556 17.3144 39.4575 17.1385L32.2951 4.49396C32.1941 4.31881 32.1293 4.12512 32.1045 3.92438C32.0797 3.72365 32.0954 3.51996 32.1507 3.32543C32.259 2.93413 32.5172 2.60148 32.8689 2.39977L35.6839 0.802325C36.0374 0.602422 36.4558 0.551367 36.8469 0.660384C37.238 0.769401 37.5699 1.02957 37.7696 1.38368L39.9133 4.63712C39.958 4.71096 39.9875 4.79304 40 4.8785C40.0125 4.96395 40.0078 5.05105 39.9861 5.13464C39.9644 5.21823 39.9262 5.29662 39.8737 5.36516C39.8213 5.4337 39.7556 5.49101 39.6807 5.53369C39.6058 5.57637 39.523 5.60357 39.4374 5.61366C39.3518 5.62375 39.265 5.61654 39.1822 5.59245C39.0995 5.56836 39.0223 5.52789 38.9554 5.47341C38.8885 5.41894 38.8332 5.35158 38.7928 5.27532L36.6471 2.01866C36.6318 1.99104 36.6111 1.96677 36.5863 1.94725C36.5615 1.92773 36.5331 1.91335 36.5027 1.90497C36.4718 1.8961 36.4395 1.89347 36.4076 1.89724C36.3758 1.90101 36.345 1.91111 36.317 1.92693L33.5092 3.5218C33.4521 3.55508 33.4103 3.60929 33.3925 3.67295C33.3838 3.70268 33.3812 3.73384 33.3849 3.76459C33.3885 3.79534 33.3984 3.82503 33.4137 3.85188L40.5794 16.5036C40.5946 16.5311 40.6152 16.5552 40.6399 16.5746C40.6646 16.5941 40.6929 16.6083 40.7232 16.6166C40.7856 16.6338 40.8522 16.6259 40.9089 16.5947L43.7173 15.0004C43.7733 14.9688 43.8145 14.9163 43.8321 14.8544C43.8498 14.7925 43.8423 14.7262 43.8115 14.6697L42.2671 12.0616C42.1843 11.9127 42.1636 11.737 42.2095 11.5728C42.2555 11.4086 42.3644 11.2693 42.5125 11.1852C42.6605 11.1011 42.8358 11.0791 43 11.124C43.1642 11.1689 43.304 11.277 43.389 11.4247L44.9314 14.0296C45.1314 14.3836 45.1832 14.8026 45.0755 15.1949C44.9679 15.5871 44.7095 15.9206 44.3569 16.1225L41.5426 17.7199C41.3132 17.8496 41.0543 17.9179 40.7909 17.9182Z" fill="#1D37B5"/>
<path d="M41.2 8.89722C41.0855 8.89736 40.9729 8.8669 40.874 8.80896C40.775 8.75103 40.6933 8.66771 40.6372 8.56758L40.0827 7.57868C39.9989 7.4292 39.9778 7.25248 40.024 7.08739C40.0702 6.9223 40.1799 6.78236 40.329 6.69837C40.4781 6.61437 40.6544 6.5932 40.8191 6.6395C40.9837 6.6858 41.1233 6.79579 41.2071 6.94527L41.7616 7.93417C41.8167 8.03249 41.8452 8.14356 41.8443 8.25634C41.8433 8.36912 41.813 8.47969 41.7562 8.57706C41.6994 8.67443 41.6182 8.75521 41.5206 8.81138C41.4231 8.86754 41.3125 8.89714 41.2 8.89722Z" fill="#1D37B5"/>
<path d="M4.60029 21.5181C4.43751 21.5178 4.27581 21.4917 4.12124 21.4405L1.05357 20.4283C0.862405 20.3654 0.685494 20.2653 0.532941 20.1338C0.380388 20.0024 0.255181 19.8421 0.164473 19.6621C0.0737655 19.4822 0.0193342 19.2861 0.0042884 19.085C-0.0107574 18.884 0.013877 18.682 0.0767848 18.4905L4.61576 4.67921C4.74382 4.29324 5.01909 3.97369 5.38148 3.79034C5.74386 3.60699 6.16394 3.57472 6.54998 3.70059L9.61831 4.71345C10.0039 4.84133 10.3232 5.11702 10.5064 5.4802C10.6896 5.84338 10.7217 6.26447 10.5957 6.65132L6.05998 20.4626C5.9584 20.77 5.76265 21.0374 5.50058 21.2269C5.23852 21.4164 4.92348 21.5183 4.60029 21.5181ZM6.07288 4.91693C6.02147 4.9169 5.97137 4.93312 5.9297 4.96327C5.88803 4.99343 5.85691 5.03598 5.84077 5.08487L1.30179 18.8929C1.29167 18.9233 1.28765 18.9553 1.28997 18.9873C1.2923 19.0192 1.30092 19.0503 1.31533 19.0789C1.32954 19.1077 1.34935 19.1333 1.3736 19.1543C1.39785 19.1753 1.42605 19.1911 1.45653 19.201L4.52485 20.2139C4.58644 20.2336 4.65329 20.2285 4.71118 20.1997C4.74013 20.1855 4.76597 20.1656 4.78722 20.1414C4.80847 20.1171 4.8247 20.0888 4.83497 20.0582L9.37395 6.24889C9.39413 6.1873 9.3891 6.12021 9.35997 6.06232C9.33084 6.00444 9.27999 5.96049 9.21857 5.94012L6.14896 4.92984C6.12453 4.92102 6.09884 4.91622 6.07288 4.91563V4.91693Z" fill="#1D37B5"/>
<path d="M33.2804 27.3691C32.7579 27.3691 32.2465 27.2191 31.8065 26.937L24.6286 22.5039C24.5521 22.4616 24.485 22.4043 24.4313 22.3353C24.3776 22.2663 24.3385 22.187 24.3163 22.1024C24.2941 22.0178 24.2893 21.9296 24.3021 21.843C24.315 21.7565 24.3453 21.6735 24.3912 21.599C24.437 21.5246 24.4975 21.4602 24.5689 21.4099C24.6404 21.3595 24.7212 21.3243 24.8067 21.3062C24.8921 21.2881 24.9804 21.2876 25.066 21.3048C25.1516 21.3219 25.2329 21.3562 25.3049 21.4058L32.4944 25.8421C32.656 25.9526 32.8381 26.0293 33.03 26.0676C33.2218 26.1059 33.4194 26.105 33.6109 26.0651C33.8024 26.0251 33.9839 25.9469 34.1445 25.835C34.3051 25.7232 34.4415 25.58 34.5457 25.4141C34.6498 25.2482 34.7194 25.063 34.7504 24.8695C34.7815 24.676 34.7732 24.4782 34.7262 24.288C34.6791 24.0978 34.5943 23.919 34.4767 23.7624C34.3591 23.6058 34.2112 23.4746 34.0418 23.3766L27.4841 19.4537C27.4098 19.4111 27.3447 19.354 27.2927 19.2859C27.2406 19.2178 27.2026 19.1399 27.1809 19.0569C27.1592 18.9739 27.1542 18.8874 27.1663 18.8025C27.1783 18.7175 27.2071 18.6358 27.251 18.5622C27.2949 18.4885 27.353 18.4243 27.422 18.3734C27.4909 18.3225 27.5692 18.2858 27.6525 18.2656C27.7357 18.2453 27.8221 18.2419 27.9067 18.2555C27.9912 18.269 28.0722 18.2994 28.145 18.3447L34.711 22.2713C35.2219 22.5839 35.6168 23.0551 35.8356 23.6132C36.0544 24.1714 36.0851 24.7859 35.9231 25.3632C35.7611 25.9405 35.4152 26.4489 34.9381 26.811C34.461 27.1731 33.8789 27.3691 33.2804 27.3691Z" fill="#1D37B5"/>
</svg>
