<?xml version="1.0" encoding="utf-8"?>
<!-- Generator: Adobe Illustrator 24.0.2, SVG Export Plug-In . SVG Version: 6.00 Build 0)  -->
<svg version="1.1" id="Layer_1" xmlns="http://www.w3.org/2000/svg" xmlns:xlink="http://www.w3.org/1999/xlink" x="0px" y="0px"
	 viewBox="0 0 23 16" style="enable-background:new 0 0 23 16;" xml:space="preserve">
<style type="text/css">
	.st0{fill:#959AB2;}
</style>
<path class="st0" d="M15,0c-4.2,0-7.7,3.3-8,7.5H0.6v1H7c0.3,4.2,3.7,7.5,8,7.5c4.4,0,8-3.6,8-8S19.4,0,15,0z M15,15
	c-3.7,0-6.7-2.9-7-6.5h8.2l-2.3,2.3c-0.2,0.2-0.2,0.5,0,0.7c0.2,0.2,0.5,0.2,0.7,0l3.2-3.2c0.2-0.2,0.2-0.5,0-0.7l-3.2-3.2
	c-0.2-0.2-0.5-0.2-0.7,0c-0.2,0.2-0.2,0.5,0,0.7l2.3,2.3H8C8.3,3.9,11.3,1,15,1c3.9,0,7,3.1,7,7C22,11.9,18.9,15,15,15z"/>
</svg>
