<svg width="17" height="17" viewBox="0 0 17 17" fill="none" xmlns="http://www.w3.org/2000/svg">
<g clip-path="url(#clip0)">
<path d="M16.9834 4.99805C16.9436 4.09477 16.7975 3.47378 16.5882 2.93568C16.3724 2.3645 16.0403 1.85312 15.6052 1.42801C15.1801 0.996288 14.6653 0.660819 14.1008 0.44833C13.5596 0.239083 12.9418 0.0930128 12.0385 0.0531873C11.1285 0.00998882 10.8396 0 8.53154 0C6.22347 0 5.93457 0.00998882 5.02792 0.0498144C4.12465 0.08964 3.50365 0.23584 2.96568 0.444957C2.39438 0.660819 1.883 0.992916 1.45789 1.42801C1.02617 1.85312 0.690826 2.36787 0.478207 2.93243C0.26896 3.47378 0.12289 4.0914 0.083064 4.99467C0.0398655 5.90469 0.0298767 6.19359 0.0298767 8.50166C0.0298767 10.8097 0.0398655 11.0986 0.0796911 12.0053C0.119517 12.9085 0.265717 13.5295 0.474963 14.0676C0.690826 14.6388 1.02617 15.1502 1.45789 15.5753C1.883 16.007 2.39775 16.3425 2.96231 16.555C3.50365 16.7642 4.12128 16.9103 5.02468 16.9501C5.9312 16.9901 6.22023 16.9999 8.52829 16.9999C10.8364 16.9999 11.1253 16.9901 12.0319 16.9501C12.9352 16.9103 13.5562 16.7642 14.0941 16.555C15.2366 16.1133 16.1399 15.21 16.5816 14.0676C16.7907 13.5263 16.9369 12.9085 16.9768 12.0053C17.0166 11.0986 17.0266 10.8097 17.0266 8.50166C17.0266 6.19359 17.0232 5.90469 16.9834 4.99805ZM15.4525 11.9389C15.4159 12.7691 15.2765 13.2174 15.1602 13.5163C14.8746 14.2569 14.2868 14.8447 13.5462 15.1304C13.2473 15.2466 12.7957 15.386 11.9687 15.4225C11.0721 15.4624 10.8032 15.4723 8.53491 15.4723C6.26667 15.4723 5.99438 15.4624 5.10096 15.4225C4.27072 15.386 3.82239 15.2466 3.5235 15.1304C3.15495 14.9941 2.81948 14.7783 2.54719 14.496C2.26491 14.2203 2.04905 13.8882 1.91284 13.5197C1.7966 13.2208 1.65715 12.7691 1.6207 11.9422C1.58074 11.0456 1.57088 10.7765 1.57088 8.50828C1.57088 6.24003 1.58074 5.96774 1.6207 5.07445C1.65715 4.24421 1.7966 3.79588 1.91284 3.497C2.04905 3.12832 2.26491 2.79298 2.55056 2.52056C2.8261 2.23828 3.1582 2.02241 3.52688 1.88633C3.82576 1.7701 4.27746 1.63064 5.10433 1.59406C6.00099 1.55424 6.27004 1.54425 8.53815 1.54425C10.8098 1.54425 11.0787 1.55424 11.9721 1.59406C12.8023 1.63064 13.2507 1.7701 13.5496 1.88633C13.9181 2.02241 14.2536 2.23828 14.5259 2.52056C14.8082 2.79622 15.024 3.12832 15.1602 3.497C15.2765 3.79588 15.4159 4.24746 15.4525 5.07445C15.4923 5.97111 15.5023 6.24003 15.5023 8.50828C15.5023 10.7765 15.4923 11.0422 15.4525 11.9389Z" fill="white"/>
<path d="M8.53152 4.13452C6.12058 4.13452 4.16446 6.09052 4.16446 8.50159C4.16446 10.9127 6.12058 12.8686 8.53152 12.8686C10.9426 12.8686 12.8986 10.9127 12.8986 8.50159C12.8986 6.09052 10.9426 4.13452 8.53152 4.13452ZM8.53152 11.3344C6.96743 11.3344 5.69872 10.0658 5.69872 8.50159C5.69872 6.93736 6.96743 5.66878 8.53152 5.66878C10.0957 5.66878 11.3643 6.93736 11.3643 8.50159C11.3643 10.0658 10.0957 11.3344 8.53152 11.3344Z" fill="white"/>
<path d="M14.0909 3.96189C14.0909 4.5249 13.6344 4.9814 13.0713 4.9814C12.5083 4.9814 12.0518 4.5249 12.0518 3.96189C12.0518 3.39876 12.5083 2.94238 13.0713 2.94238C13.6344 2.94238 14.0909 3.39876 14.0909 3.96189Z" fill="white"/>
</g>
<defs>
<clipPath id="clip0">
<rect width="17" height="17" fill="white"/>
</clipPath>
</defs>
</svg>
