<svg width="25" height="25" viewBox="0 0 25 25" fill="none" xmlns="http://www.w3.org/2000/svg">
<g clip-path="url(#clip0)">
<path d="M8.16529 21.0249C8.50587 21.3774 9.07272 21.3774 9.42521 21.0249C9.7658 20.6844 9.7658 20.1175 9.42521 19.7777L3.03668 13.3892L24.118 13.3892C24.6094 13.3884 25 12.9978 25 12.5064C25 12.0149 24.6094 11.6116 24.118 11.6116L3.03668 11.6116L9.42522 5.235C9.7658 4.88251 9.7658 4.31487 9.42522 3.97508C9.07272 3.62258 8.50508 3.62258 8.16529 3.97508L0.264371 11.876C-0.0881225 12.2166 -0.0881226 12.7834 0.264371 13.1232L8.16529 21.0249Z" fill="#444650"/>
</g>
<defs>
<clipPath id="clip0">
<rect width="25" height="25" fill="white" transform="translate(25 25) rotate(-180)"/>
</clipPath>
</defs>
</svg>
