<svg width="17" height="17" viewBox="0 0 17 17" fill="none" xmlns="http://www.w3.org/2000/svg">
<g clip-path="url(#clip0)">
<path d="M16.2272 0H10.0454C9.61866 0 9.27268 0.345977 9.27268 0.772736C9.27268 1.1995 9.61866 1.54547 10.0454 1.54547H14.3617L6.40815 9.49908C6.10636 9.80087 6.10636 10.2901 6.40815 10.5919C6.55899 10.7427 6.75675 10.8182 6.9545 10.8182C7.15226 10.8182 7.35005 10.7428 7.50093 10.5918L15.4545 2.63825V6.95456C15.4545 7.38132 15.8005 7.7273 16.2273 7.7273C16.654 7.7273 17 7.38132 17 6.95456V0.772736C17 0.345977 16.654 0 16.2272 0Z" fill="#959AB2"/>
<path d="M13.1364 7.72729C12.7096 7.72729 12.3636 8.07327 12.3636 8.50003V15.4546H1.54544V4.63638H8.5C8.92676 4.63638 9.27274 4.29041 9.27274 3.86365C9.27274 3.43689 8.92676 3.09094 8.5 3.09094H0.772736C0.345977 3.09094 0 3.43692 0 3.86368V16.2273C0 16.6541 0.345977 17 0.772736 17H13.1364C13.5631 17 13.9091 16.6541 13.9091 16.2273V8.50003C13.9091 8.07327 13.5631 7.72729 13.1364 7.72729Z" fill="#959AB2"/>
</g>
<defs>
<clipPath id="clip0">
<rect width="17" height="17" fill="white"/>
</clipPath>
</defs>
</svg>
