<svg width="24" height="12" viewBox="0 0 24 12" fill="none" xmlns="http://www.w3.org/2000/svg">
<path d="M0.802057 1.60419H23.0684C23.5126 1.60419 23.8704 1.24635 23.8704 0.802136C23.8704 0.35792 23.5126 7.85979e-05 23.0684 7.85979e-05H0.802057C0.357841 -0.00609108 0 0.35175 0 0.795966C0 1.24018 0.357841 1.60419 0.802057 1.60419Z" fill="#444650"/>
<path d="M23.0684 5.18872H0.802057C0.357841 5.18872 0 5.54656 0 5.99078C0 6.43499 0.357841 6.79283 0.802057 6.79283H23.0684C23.5126 6.79283 23.8704 6.43499 23.8704 5.99078C23.8766 5.55273 23.5126 5.18872 23.0684 5.18872Z" fill="#444650"/>
<path d="M15.6463 10.3835H0.802057C0.586118 10.3835 0.382519 10.4699 0.234447 10.618C0.0863753 10.7722 0 10.9758 0 11.1918C0 11.636 0.357841 11.9938 0.802057 11.9938H15.6463C16.0905 11.9938 16.4483 11.636 16.4483 11.1918C16.4483 10.7476 16.0905 10.3835 15.6463 10.3835Z" fill="#444650"/>
</svg>
