<svg width="17" height="18" viewBox="0 0 17 18" fill="none" xmlns="http://www.w3.org/2000/svg">
<path d="M11.3523 2.05C8.75888 -0.548243 4.53798 -0.548243 1.94461 2.05C-0.648202 4.64881 -0.648202 8.87708 1.94461 11.4759C4.25407 13.7891 7.85095 14.037 10.4426 12.2306C10.4972 12.4892 10.622 12.7359 10.8227 12.9369L14.5994 16.7208C15.1498 17.2711 16.0392 17.2711 16.5868 16.7208C17.1366 16.17 17.1366 15.2789 16.5868 14.7297L12.81 10.9447C12.6104 10.7454 12.3636 10.6198 12.1056 10.5651C13.9096 7.96801 13.6623 4.36493 11.3523 2.05ZM10.1599 10.2812C8.22368 12.2211 5.07262 12.2211 3.13701 10.2812C1.20196 8.34144 1.20196 5.18502 3.13701 3.24521C5.07262 1.30596 8.22368 1.30596 10.1599 3.24521C12.096 5.18502 12.096 8.34144 10.1599 10.2812Z" fill="#959AB2"/>
</svg>
