<svg width="18" height="18" viewBox="0 0 18 18" fill="none" xmlns="http://www.w3.org/2000/svg">
<g clip-path="url(#clip0)">
<path d="M15.1551 10.7298C14.7626 10.3226 14.2891 10.1048 13.7873 10.1048C13.2896 10.1048 12.812 10.3185 12.4033 10.7258L11.1245 11.996C11.0193 11.9395 10.9141 11.8871 10.8129 11.8347C10.6673 11.7621 10.5297 11.6935 10.4123 11.621C9.21447 10.8629 8.12589 9.875 7.08183 8.59677C6.57598 7.95968 6.23606 7.42339 5.9892 6.87903C6.32104 6.57661 6.62859 6.2621 6.92805 5.95968C7.04136 5.84677 7.15467 5.72984 7.26798 5.61694C8.1178 4.77016 8.1178 3.67339 7.26798 2.82661L6.16321 1.72581C6.03776 1.60081 5.90827 1.47177 5.78686 1.34274C5.54406 1.09274 5.28911 0.834677 5.02607 0.592742C4.63354 0.205645 4.16411 0 3.67041 0C3.1767 0 2.69919 0.205645 2.29451 0.592742C2.29046 0.596774 2.29046 0.596774 2.28642 0.600806L0.910516 1.98387C0.39253 2.5 0.0971166 3.12903 0.0323684 3.85887C-0.0647539 5.03629 0.283268 6.13306 0.550354 6.85081C1.20593 8.6129 2.18525 10.246 3.64613 11.996C5.41861 14.1048 7.55125 15.7702 9.9874 16.9435C10.9182 17.3831 12.1605 17.9032 13.5486 17.9919C13.6335 17.996 13.7226 18 13.8035 18C14.7383 18 15.5234 17.6653 16.1385 17C16.1425 16.9919 16.1506 16.9879 16.1547 16.9798C16.3651 16.7258 16.6079 16.496 16.8629 16.25C17.0369 16.0847 17.2149 15.9113 17.3889 15.7298C17.7896 15.3145 18 14.8306 18 14.3347C18 13.8347 17.7855 13.3548 17.3768 12.9516L15.1551 10.7298ZM16.6039 14.9758C16.5998 14.9758 16.5998 14.9798 16.6039 14.9758C16.446 15.1452 16.2842 15.2984 16.1102 15.4677C15.8471 15.7177 15.58 15.9798 15.3291 16.2742C14.9204 16.7097 14.4388 16.9153 13.8075 16.9153C13.7468 16.9153 13.6821 16.9153 13.6214 16.9113C12.4195 16.8347 11.3026 16.3669 10.4649 15.9677C8.17445 14.8629 6.16321 13.2944 4.4919 11.3065C3.11195 9.64919 2.18929 8.11693 1.57823 6.47177C1.20188 5.46774 1.06429 4.68548 1.12499 3.94758C1.16546 3.47581 1.34757 3.08468 1.68345 2.75L3.06339 1.375C3.26169 1.18952 3.47212 1.08871 3.6785 1.08871C3.93345 1.08871 4.13983 1.24194 4.26933 1.37097C4.27338 1.375 4.27742 1.37903 4.28147 1.38306C4.52832 1.6129 4.76303 1.85081 5.00989 2.10484C5.13534 2.23387 5.26483 2.3629 5.39433 2.49597L6.4991 3.59677C6.92805 4.02419 6.92805 4.41935 6.4991 4.84677C6.38174 4.96371 6.26843 5.08065 6.15107 5.19355C5.81115 5.54032 5.4874 5.8629 5.13534 6.17742C5.12724 6.18548 5.11915 6.18952 5.1151 6.19758C4.76708 6.54435 4.83183 6.88306 4.90467 7.1129C4.90872 7.125 4.91276 7.1371 4.91681 7.14919C5.20413 7.84274 5.60881 8.49597 6.22392 9.27419L6.22796 9.27823C7.34487 10.6492 8.52248 11.7177 9.82149 12.5363C9.9874 12.6411 10.1574 12.7258 10.3192 12.8065C10.4649 12.879 10.6025 12.9476 10.7199 13.0202C10.7361 13.0282 10.7522 13.0403 10.7684 13.0484C10.906 13.1169 11.0355 13.1492 11.1691 13.1492C11.5049 13.1492 11.7154 12.9395 11.7842 12.871L13.1682 11.4919C13.3057 11.3548 13.5243 11.1895 13.7792 11.1895C14.0301 11.1895 14.2365 11.3468 14.362 11.4839C14.366 11.4879 14.366 11.4879 14.37 11.4919L16.5998 13.7137C17.0166 14.125 17.0166 14.5484 16.6039 14.9758Z" fill="#1D37B5"/>
</g>
<defs>
<clipPath id="clip0">
<rect width="18" height="18" fill="white"/>
</clipPath>
</defs>
</svg>
