<svg width="100%" height="100%" viewBox="0 0 850 280" fill="none" xmlns="http://www.w3.org/2000/svg">
  
  <g id="logo-icon" transform="translate(-73, -16.8) scale(0.35)">
    <path d="M728.523 403.255C728.523 403.255 688.52 325.556 659.873 302.327L539.865 152L407.119 304.171C407.119 304.171 351.035 362.561 373.745 405.791C376.915 411.844 378.356 418.011 383.025 423.718C390.749 433.113 402.911 440.433 412.825 447.523C436.804 464.758 462.454 479.053 487.47 494.5C487.47 494.5 611.801 555.138 623.963 617.332C623.963 617.332 640.621 677.221 617.91 721.201C618.66 720.912 668.346 701.372 689.904 673.532C689.904 673.532 809.392 574.678 728.523 403.255ZM689.558 640.273C684.312 649.035 676.012 661.312 663.735 674.569C679.24 645.749 689.327 613.989 693.362 581.538C695.034 568.28 695.668 554.908 695.437 541.535C694.284 483.318 674.11 427.003 639.583 380.545C636.874 376.856 633.877 371.495 630.303 368.671C640.678 376.856 651.169 384.868 660.507 394.148C687.425 420.836 705.582 455.766 713.94 492.598C725.41 543.034 716.072 596.063 689.558 640.273Z" fill="#2277BB"/>
    
    <path d="M356.741 391.727C356.51 402.563 357.548 426.945 372.131 452.711C385.1 475.652 402.508 488.506 411.615 494.27C426.255 504.414 446.372 517.384 471.388 530.698C495.885 543.783 506.434 547.184 523.38 558.193C562.172 583.382 597.39 621.771 606.843 668.229C609.207 679.757 610.014 691.516 609.495 703.274C609.38 705.753 609.034 726.158 606.555 727.022C595.949 730.596 583.73 733.824 569.953 735.899C511.794 744.545 447.467 728.175 401.874 690.651C354.262 651.455 327.748 591.163 323.54 530.353C322.733 518.882 322.675 507.296 323.367 495.826C327.921 510.582 335.875 530.468 349.939 551.507C371.151 583.209 401.47 609.551 432.884 630.763C440.608 635.95 448.447 641.023 455.998 646.441C471.157 657.335 484.645 670.016 496.577 684.368C496.001 683.677 496.346 680.103 496.231 679.123C496.001 677.048 495.712 674.915 495.367 672.84C494.56 668.575 493.407 664.367 491.908 660.332C479.112 625.805 443.317 605.689 414.9 585.399C413.286 584.247 411.615 583.036 410.001 581.883C388.386 566.032 363.427 549.835 349.248 526.664C336.509 505.855 331.552 481.07 333.685 456.861C334.953 441.874 338.872 427.176 344.925 413.4C346.884 409.019 349.017 404.696 351.323 400.546C353.052 397.606 354.839 394.609 356.741 391.727Z" fill="#FF7C10"/>
  </g>

  <g id="logo-text" transform="translate(87, -555.8) scale(0.8)">
    <path d="M192.638 815.27H240.48C247.454 815.27 253.795 816.019 259.386 817.576C264.977 819.132 269.934 821.495 274.257 824.723C278.522 827.951 281.577 832.447 283.422 838.211C285.209 843.975 285.497 850.719 284.229 858.5C281.981 872.795 276.332 882.882 267.167 888.704C258.002 894.526 245.494 897.466 229.586 897.466H216.328L211.717 926.574H175L192.638 815.27ZM248.434 855.964C249.068 852.448 248.319 849.854 246.186 848.068C244.053 846.338 241.056 845.416 237.137 845.416H224.571L221.055 867.204H232.352C241.921 867.262 247.281 863.458 248.434 855.964Z" fill="#2277BB"/>
    <path d="M389.769 926.516H353.974L351.438 911.76H312.185L305.037 926.516H267.225L326.364 815.212H365.963L389.769 926.516ZM336.682 860.864L324.75 885.188H347.173L343.195 861.037C342.446 856.08 342.1 851.295 342.1 846.742C340.486 852.045 338.699 856.771 336.682 860.864Z" fill="#2277BB"/>
    <path d="M434.267 926.516H397.55L415.188 815.212H442.856L475.769 868.761C475.884 862.305 476.46 856.022 477.498 850.027L482.916 815.212H519.633L501.995 926.516H474.328L441.588 873.084C441.588 877.752 441.069 883.805 439.974 891.183L434.267 926.516Z" fill="#2277BB"/>
    
    <path d="M632.493 926.516H596.698L594.162 911.76H554.909L547.761 926.516H509.949L569.088 815.212H608.688L632.493 926.516ZM579.406 860.864L567.475 885.188H589.897L585.92 861.037C585.17 856.08 584.824 851.295 584.824 846.742C583.21 852.045 581.424 856.771 579.406 860.864Z" fill="#FF7C10"/>
    <path d="M646.846 844.206C648.46 834.119 653.705 826.395 662.754 820.919C671.746 815.443 682.179 812.734 694.053 812.734C709.847 812.734 723.392 815.962 734.748 822.417L729.963 853.082C719.876 846.165 708.694 842.88 696.417 843.053C688.347 843.053 684.197 844.724 683.851 848.125C683.736 849.739 684.946 851.295 687.425 852.794C689.903 854.35 693.073 855.676 696.878 856.829C700.682 857.982 704.774 859.653 709.04 861.844C713.305 864.034 717.225 866.455 720.799 869.049C724.372 871.7 727.024 875.332 728.926 880C730.77 884.669 731.231 890.03 730.252 896.082C726.563 918.043 709.674 928.995 679.701 928.995C662.524 928.995 647.998 925.364 636.125 918.043L641.197 886.226C652.091 894.295 664.368 898.33 677.914 898.33C687.425 898.33 692.497 896.659 693.016 893.258C693.362 891.356 692.266 889.569 689.846 887.955C687.425 886.341 684.312 884.9 680.565 883.747C676.819 882.594 672.726 880.923 668.403 878.848C664.08 876.715 660.103 874.352 656.472 871.758C652.84 869.164 650.131 865.475 648.229 860.691C646.327 855.964 645.866 850.431 646.846 844.206Z" fill="#FF7C10"/>
    <path d="M754.922 815.27H791.639L774.001 926.574H737.284L754.922 815.27Z" fill="#FF7C10"/>
    <path d="M904.499 926.516H868.704L866.168 911.76H826.915L819.767 926.516H781.955L841.094 815.212H880.693L904.499 926.516ZM851.412 860.864L839.48 885.188H861.903L857.925 861.037C857.176 856.08 856.83 851.295 856.83 846.742C855.216 852.045 853.429 856.771 851.412 860.864Z" fill="#FF7C10"/>
  </g>

</svg>
