<!-- Generated by IcoMoon.io -->
<svg version="1.1" xmlns="http://www.w3.org/2000/svg" width="32" height="32" viewBox="0 0 32 32">
<title>world</title>
<path d="M0 15.063h6.649c0.062-2.347 0.349-4.558 0.827-6.563h-5.531c-1.059 1.976-1.807 4.203-1.945 6.563v0z"></path>
<path d="M6.649 16.937h-6.649c0.138 2.36 0.887 4.587 1.945 6.563h5.531c-0.479-2.004-0.766-4.215-0.827-6.563z"></path>
<path d="M15.062 15.063v-6.563h-5.648c-0.513 1.986-0.824 4.217-0.892 6.563h6.539z"></path>
<path d="M15.062 6.625v-6.625c-2.053 0.573-3.871 3.196-5.072 6.625h5.072z"></path>
<path d="M15.062 32v-6.625h-5.072c1.2 3.428 3.019 6.052 5.072 6.625z"></path>
<path d="M16.937 0v6.625h5.072c-1.2-3.429-3.019-6.052-5.072-6.625z"></path>
<path d="M23.477 15.063c-0.068-2.345-0.379-4.576-0.892-6.563h-5.648v6.563h6.539z"></path>
<path d="M15.062 16.937h-6.539c0.068 2.345 0.379 4.576 0.892 6.563h5.648v-6.563z"></path>
<path d="M24.001 6.625h4.859c-1.941-2.655-4.672-4.897-7.855-5.954 1.223 1.444 2.246 3.615 2.996 5.954z"></path>
<path d="M7.999 25.375h-4.859c1.941 2.655 4.673 4.897 7.855 5.954-1.223-1.444-2.246-3.616-2.996-5.954z"></path>
<path d="M7.999 6.625c0.75-2.338 1.773-4.51 2.996-5.954-3.183 1.056-5.915 3.299-7.855 5.954h4.859z"></path>
<path d="M24.001 25.375c-0.749 2.338-1.773 4.51-2.996 5.954 3.183-1.056 5.915-3.299 7.855-5.954h-4.86z"></path>
<path d="M16.937 16.937v6.563h5.648c0.513-1.986 0.824-4.217 0.892-6.563h-6.539z"></path>
<path d="M24.524 8.5c0.479 2.004 0.766 4.215 0.827 6.563h6.649c-0.138-2.36-0.887-4.587-1.945-6.563h-5.531z"></path>
<path d="M16.937 25.375v6.625c2.053-0.573 3.872-3.196 5.072-6.625h-5.072z"></path>
<path d="M32 16.937h-6.649c-0.062 2.347-0.349 4.559-0.827 6.563h5.531c1.059-1.976 1.807-4.203 1.945-6.563z"></path>
</svg>
