<svg xmlns="http://www.w3.org/2000/svg" width="188" height="70" fill="none" viewBox="0 0 188 70">
    <path fill="#DE2626"
          d="M40.555 32.723h18.181s.504-.061.626.153c.121.212.214.336.214.93 0 0 .271 2.534 0 4.118 0 0-.169 1.647-.382 2.487-.214.839-.396 1.86-1.023 3.295-.624 1.433-1.418 3.416-2.21 4.59-.794 1.175-2.38 3.6-3.753 4.744-1.372 1.143-3.325 2.852-5.033 3.737-1.709.884-3.02 1.555-4.576 2.043s-2.822.824-4.057.993c-1.236.167-4.454.35-6.193.152-1.739-.199-4.408-.855-5.658-1.312-1.252-.458-3.114-1.282-4.714-2.273-2.112-1.31-3.218-2.356-4.453-3.494-1.263-1.161-1.815-1.952-1.922-2.104s-.26-.35-.092-.519c.168-.167 1.647-1.525 1.647-1.525l1.373-1.297s.183-.182.32-.213c.138-.03.32-.137.504.092.183.23 1.327 1.845 2.745 2.943s2.96 2.335 5.064 3.189 2.93 1.28 4.866 1.449c1.937.167 3.462.274 5.658-.016 2.197-.289 4.455-.9 6.712-2.256 2.257-1.359 4.79-3.098 6.3-5.43 1.509-2.335 1.875-2.99 2.653-4.882s.872-2.776 1.007-3.371c.132-.582.181-1.02.181-1.02l-4.864.03s-.198 1.387-.763 2.805c-.563 1.42-1.418 3.081-2.44 4.195-1.021 1.114-2.804 2.822-4.865 3.843-2.087 1.035-3.554 1.404-4.698 1.51a18.2 18.2 0 0 1-4.378-.137c-1.708-.26-4.5-1.327-5.628-2.135-1.13-.81-3.233-2.517-4.042-3.768S21.489 42.15 21 40.853s-.732-2.013-.794-2.38c-.06-.366-.106-.503-.106-.503h-9.304s-.122.031-.336-.213c-.213-.244-.179-.385-.194-1.162-.015-.779 0-1.968.106-3.174.1-1.108.287-3.031.607-4.13.32-1.097.794-2.852 1.51-4.225.717-1.372 1.373-2.608 2.075-3.645s2.029-2.745 2.684-3.34 1.739-1.678 2.562-2.257c.824-.58 1.846-1.373 3.005-1.999 1.16-.625 3.203-1.632 5.217-2.18 2.013-.55 3.127-.779 5.368-.9 2.243-.122 3.463-.077 5.736.32 2.272.396 3.889.945 5.735 1.723s3.386 1.74 4.79 2.792 2.958 2.53 3.523 3.187c.564.656.701.823.701.93s.06.214-.122.381c-.183.168-2.73 2.792-2.73 2.792s-.153.168-.26.26c-.106.091-.213.083-.336.046-.12-.038.008.076-.525-.535a24 24 0 0 0-2.098-2.09c-.747-.648-1.365-1.12-2.02-1.54a32 32 0 0 0-2.532-1.433 12.5 12.5 0 0 0-1.83-.763c-.885-.306-1.488-.527-2.09-.679-.603-.153-1.274-.252-2.19-.312-.915-.062-2.15-.062-2.86-.062-.708 0-1.449.038-2.325.146-.877.106-2.48.457-3.455.884s-2.723 1.158-3.707 1.76c-.983.604-2.935 1.938-4.125 3.296s-2.258 2.67-3.066 4.27c-.808 1.602-1.663 3.418-1.891 4.516-.23 1.097-.351 1.799-.351 1.891v.09l4.713.062s.397-1.479.854-2.714c.457-1.237 1.784-3.66 2.73-4.576s2.395-2.273 3.447-2.852c1.053-.58 2.471-1.282 3.539-1.572 1.067-.29 2.242-.564 3.859-.594s3.249.167 4.439.533 2.882 1.053 4.087 1.83 2.609 2.09 3.234 2.822.748.9.777 1.022c.031.122.031.32-.107.442-.136.123-2.866 2.945-2.866 2.945s-.107.12-.244.182c-.138.062-.26.168-.428-.092-.167-.258-1.22-1.662-2.043-2.318-.825-.656-1.876-1.357-2.99-1.769s-3.524-.504-4.149-.504-1.465.046-2.517.442c-1.052.398-2.532 1.039-3.768 2.396 0 0-1.037.884-1.494 1.769s-1.022 1.816-1.205 2.577c-.183.764-.32 1.602-.29 3.004.03 1.405.26 2.442.412 2.838.152.398.763 1.861 1.663 3.006.9 1.143 1.265 1.433 2.212 2.074.945.64 1.357.838 2.135 1.205.778.366.858.39 1.874.536 1.43.204 2.748.105 3.571-.05.823-.151 2.242-.624 3.325-1.355 1.083-.733 2.197-1.71 2.852-2.593.657-.885.84-1.373 1.144-2.044a7.3 7.3 0 0 0 .442-1.297h-8.373s-.213.016-.35-.077c-.139-.09-.2-.182-.2-.32s.015-.138.413-.534a939 939 0 0 0 3.843-3.997s.141-.154.293-.246c.152-.09.348-.073.348-.073"></path>
    <path fill="#DE2626"
          d="M34.98 2.333c-18.245 0-33.034 14.79-33.034 33.035S16.736 68.4 34.979 68.4s33.034-14.789 33.034-33.033S53.223 2.333 34.979 2.333m0 61.134c-15.52 0-28.1-12.58-28.1-28.1 0-15.519 12.58-28.098 28.1-28.098 15.518 0 28.099 12.58 28.099 28.099s-12.581 28.099-28.1 28.099"></path>
    <path fill="#fff"
          d="M85.766 54.561c0 2.275-1.333 4.125-3.954 4.125-2.643 0-3.953-1.894-3.953-4.147 0-2.416 1.542-3.972 3.942-3.972 2.562 0 3.965 1.687 3.965 3.994m-6.817.055c0 1.937 1.124 3.188 2.876 3.188 1.727 0 2.852-1.262 2.852-3.188 0-1.916-1.125-3.157-2.876-3.157-1.948 0-2.852 1.502-2.852 3.157M87.836 53.756c.499-.686 1.125-1.023 2.041-1.023 1.461 0 1.995.75 1.995 2.035V58.5h-.986v-3.309c0-.892-.046-1.654-1.287-1.654-1.287 0-1.705.914-1.705 2.025V58.5h-.985v-5.616h.927zM94.346 58.5h-.997v-7.748h.997zM96.864 51.884h-.997v-1.132h.997zm0 6.617h-.997v-5.616h.997zM99.265 53.756c.498-.686 1.124-1.023 2.041-1.023 1.461 0 1.994.75 1.994 2.035V58.5h-.985v-3.309c0-.892-.046-1.654-1.287-1.654-1.288 0-1.705.914-1.705 2.025V58.5h-.986v-5.616h.928zM107.235 58.686c-1.762 0-2.817-1.089-2.817-2.917 0-1.817 1.124-3.047 2.782-3.047 1.971 0 2.713 1.47 2.713 3.09v.131h-4.498l-.011.066c0 1.197.707 1.915 1.865 1.915.859 0 1.334-.348 1.612-1.197h.963c-.302 1.295-1.194 1.959-2.609 1.959m-.057-5.202c-.963 0-1.636.653-1.763 1.708h3.478c-.093-1.066-.73-1.708-1.715-1.708M119.033 53.027c-.127-1.121-.835-1.579-2.052-1.579-1.183 0-1.867.468-1.867 1.285 0 .87.962 1.055 2.238 1.306 1.345.26 3.061.653 3.061 2.285 0 1.72-1.635 2.35-3.212 2.35-1.971 0-3.42-.859-3.42-2.73h1.054c.047 1.403 1.137 1.893 2.459 1.893.962 0 2.052-.316 2.052-1.415 0-1.001-1.044-1.197-2.4-1.49-1.333-.284-2.875-.49-2.875-2.123 0-1.59 1.506-2.21 2.99-2.21 1.752 0 2.958.762 3.027 2.428zM124.036 58.686c-1.764 0-2.818-1.089-2.818-2.917 0-1.817 1.124-3.047 2.782-3.047 1.971 0 2.713 1.47 2.713 3.09v.131h-4.498l-.012.066c0 1.197.707 1.915 1.866 1.915.859 0 1.334-.348 1.613-1.197h.961c-.3 1.295-1.195 1.959-2.607 1.959m-.06-5.202c-.961 0-1.634.653-1.761 1.708h3.479c-.093-1.066-.732-1.708-1.718-1.708M130.823 53.712c-.105-.01-.151-.01-.256-.01-1.622 0-1.913 1.164-1.913 2.426v2.373h-.986v-5.616h.94v1.208c.418-.947 1.148-1.339 2.215-1.339zM132.032 52.885l1.692 4.712 1.646-4.712h1.033l-2.193 5.616h-1.054l-2.227-5.616zM138.297 51.884h-.998v-1.132h.998zm0 6.617h-.998v-5.616h.998zM142.31 58.664c-1.855 0-2.84-1.186-2.84-2.895 0-1.872 1.112-3.047 2.875-3.047 1.46 0 2.377.718 2.539 1.992h-1.021c-.174-.795-.695-1.22-1.506-1.22-1.138 0-1.856.85-1.856 2.199 0 1.371.673 2.199 1.785 2.199.894 0 1.484-.512 1.636-1.437h.997c-.173 1.339-1.125 2.21-2.609 2.21M148.447 58.686c-1.763 0-2.818-1.089-2.818-2.917 0-1.817 1.124-3.047 2.783-3.047 1.971 0 2.713 1.47 2.713 3.09v.131h-4.498l-.012.066c0 1.197.706 1.915 1.866 1.915.859 0 1.334-.348 1.613-1.197h.961c-.3 1.295-1.195 1.959-2.608 1.959m-.059-5.202c-.962 0-1.635.653-1.761 1.708h3.479c-.094-1.066-.732-1.708-1.718-1.708M162.623 58.5h-.696l-.277-.968c-.697.806-1.52 1.154-2.668 1.154-2.34 0-3.93-1.611-3.93-3.994 0-2.275 1.437-4.103 4.011-4.103 1.659 0 3.305.87 3.455 2.546h-1.066c-.163-1.012-1.112-1.687-2.389-1.687-1.796 0-2.92 1.241-2.92 3.21 0 1.938 1.124 3.179 2.909 3.179 1.739 0 2.55-1.11 2.598-2.601h-2.644v-.838h3.617zM167.151 53.712c-.105-.01-.151-.01-.255-.01-1.623 0-1.914 1.164-1.914 2.426v2.373h-.985v-5.616h.94v1.208c.417-.947 1.147-1.339 2.214-1.339zM173.111 55.66c0 1.905-1.055 3.015-2.875 3.015-1.83 0-2.921-1.11-2.921-2.96s1.124-2.993 2.933-2.993 2.863 1.077 2.863 2.938m-4.777.033c0 1.382.709 2.198 1.914 2.198 1.159 0 1.856-.827 1.856-2.209 0-1.339-.72-2.187-1.878-2.187-1.16 0-1.892.86-1.892 2.198M179.194 58.5h-.917v-.88c-.522.707-1.183 1.033-2.063 1.033-1.253 0-1.995-.664-1.995-1.904v-3.864h.985v3.613c0 .806.244 1.35 1.253 1.35 1.298 0 1.751-.87 1.751-2.024v-2.939h.986zM181.552 53.68c.463-.697 1.136-.97 2.017-.97 1.67 0 2.724 1.133 2.724 2.95s-1.043 2.982-2.677 2.982c-.883 0-1.496-.272-2.007-.925v2.95h-.985v-7.782h.928zm.022 1.991c0 1.36.72 2.188 1.88 2.188 1.124 0 1.82-.838 1.82-2.188 0-1.36-.696-2.187-1.856-2.187-1.148 0-1.844.827-1.844 2.187M95.898 9.402q-4.845 0-9.03 2.422-4.258 2.47-6.632 6.632-2.376 4.163-2.376 9.102 0 7.642 5.222 12.91 5.22 5.269 12.863 5.269 7.549 0 12.7-5.257t5.15-12.805q0-7.549-5.15-12.887-5.221-5.385-12.747-5.386M104.03 35.9q-3.271 3.487-8.098 3.487-4.143.001-7.344-2.615-4.12-3.346-4.12-9.095 0-5.02 3.154-8.39 3.201-3.463 8.192-3.463 4.874 0 8.169 3.487 3.226 3.417 3.226 8.318 0 4.878-3.179 8.271m82.452-11.313-.041-.257H174.18l-.09.089-5.803 5.804-.519.518h12.079c-1.073 3.782-4.022 6.837-7.775 8.028a11.7 11.7 0 0 1-3.546.545c-3.264 0-6.3-1.308-8.552-3.686a11.69 11.69 0 0 1-3.209-8.75c.334-6.1 5.58-11.088 11.696-11.121h.065c3.805 0 7.399 1.867 9.613 4.995l.209.294.254-.254 4.151-4.152.193-.191-.17-.213c-3.477-4.38-8.671-6.892-14.25-6.892-8.959 0-16.508 6.41-17.95 15.241a18.3 18.3 0 0 0 0 5.901c1.442 8.831 8.991 15.241 17.95 15.241a18.18 18.18 0 0 0 13.826-6.372c3.462-4.047 4.967-9.43 4.131-14.768m-60.641-5.109c0-2.113 1.797-3.487 4.966-3.487 2.957 0 6.047.838 8.641 2.601l5.012-5.012c-3.39-2.787-7.767-4.246-12.965-4.246-8.295 0-13.367 4.861-13.367 10.725 0 13.262 20.288 8.982 20.288 15.11 0 2.061-1.955 3.911-6.129 3.911-4.015 0-7.341-1.514-9.778-3.499l-5.037 5.038c3.308 3.062 8.018 5.117 14.497 5.117 9.459 0 14.107-4.86 14.107-11.305 0-13.156-20.235-9.405-20.235-14.953"></path>
</svg>